# xmcd
#
# Track frame offsets:
# 150
# 8031
# 15639
# 25044
# 32346
# 38636
# 45673
# 54004
# 61820
# 80997
# 87717
# 95621
# 102354
# 109534
# 116335
# 125050
# 134753
# 141917
# 146331
# 153753
# 163129
# 173412
# 179879
# 190149
# 201036
# 210741
# 218644
#
# Disc length: 3063 seconds
#
#
# Revision: 0
# Processed by: cddbd v1.5.1PL2 Copyright (c) Steve Scherf et al.
# Submitted via: FreeRIP 2.945 
#
DISCID=710bf51b
DTITLE=Mended Heart - For All Us Kids
DYEAR=2001
DGENRE=Christian Rock
TTITLE0=Christian Cowboy
TTITLE1=Behold Behold
TTITLE2=This Little Light Of Mine
TTITLE3=I Love Him Better Every Day
TTITLE4=O Be Careful Little Hands
TTITLE5=The Joy Of The Lord Is My Strength
TTITLE6=Climb Up Sonshine Mountain
TTITLE7=Stop And Let Me Tell You
TTITLE8=Jesus Loves Me
TTITLE9=Fishers Of Men
TTITLE10=Count Down Song
TTITLE11=The Bible
TTITLE12=The Birds Up In The Tree Tops
TTITLE13=It's Bubbling
TTITLE14=The Devil Is A Sly Old Fox
TTITLE15=I Have The Joy Down In My Heart
TTITLE16=Rise And Shine
TTITLE17=One Door And Only One
TTITLE18=There Were 12 Disciples
TTITLE19=I Am A Christian
TTITLE20=I'm So Happy
TTITLE21=Jesus Loves The Little Children
TTITLE22=Everybody Ought To Know
TTITLE23=I'm Glad I'm A Christian
TTITLE24=Whisper A Prayer In The Morning
TTITLE25=Safe Am I
TTITLE26=Into My Heart
EXTD=
EXTT0=
EXTT1=
EXTT2=
EXTT3=
EXTT4=
EXTT5=
EXTT6=
EXTT7=
EXTT8=
EXTT9=
EXTT10=
EXTT11=
EXTT12=
EXTT13=
EXTT14=
EXTT15=
EXTT16=
EXTT17=
EXTT18=
EXTT19=
EXTT20=
EXTT21=
EXTT22=
EXTT23=
EXTT24=
EXTT25=
EXTT26=
PLAYORDER=
